<svg width="146" height="328" viewBox="0 0 146 328" fill="none" xmlns="http://www.w3.org/2000/svg">
<path d="M80.7017 181.779H80.3668V113.36H80.7017C84.0168 113.36 86.7292 110.644 86.7292 107.323C86.7292 104.003 84.0168 101.286 80.7017 101.286H80.3668V99.2741C80.3668 95.5849 77.3531 92.5664 73.6696 92.5664H72.9999C69.3164 92.5664 66.3026 95.5849 66.3026 99.2741V101.286H65.298C61.9829 101.286 59.2705 104.003 59.2705 107.323C59.2705 110.644 61.9829 113.36 65.298 113.36H66.3026V181.779H65.298C61.9829 181.779 59.2705 184.495 59.2705 187.816C59.2705 191.136 61.9829 193.853 65.298 193.853H66.3026V321.299C66.3026 324.988 69.3164 328.007 72.9999 328.007H73.6696C77.3531 328.007 80.3668 324.988 80.3668 321.299V193.853H80.7017C84.0168 193.853 86.7292 191.136 86.7292 187.816C86.7292 184.495 84.0168 181.779 80.7017 181.779ZM61.8356 107.323C61.8356 104.741 63.9452 102.628 66.5236 102.628H69.6512C67.0728 102.628 64.9632 104.741 64.9632 107.323C64.9632 109.906 67.0728 112.019 69.6512 112.019H66.5236C63.9452 112.019 61.8356 109.906 61.8356 107.323ZM66.5236 192.511C63.9452 192.511 61.8356 190.398 61.8356 187.816C61.8356 185.233 63.9452 183.12 66.5236 183.12H69.6512C67.0728 183.12 64.9632 185.233 64.9632 187.816C64.9632 190.398 67.0728 192.511 69.6512 192.511H66.5236ZM71.6604 325.082C70.1 324.526 68.9815 323.043 68.9815 321.292V193.846H71.6604V325.082ZM71.6604 181.779H68.9815V113.36H71.6604V181.779ZM71.6604 101.286H68.9815V99.2741C68.9815 97.5234 70.1 96.041 71.6604 95.4843V101.286Z" fill="black"/>
<path d="M95.4358 0H50.5642C22.7506 0 0 22.7861 0 50.6432C0 78.5003 22.7506 101.286 50.5642 101.286H95.4358C123.243 101.286 146 78.5003 146 50.6432C146 22.7861 123.249 0 95.4358 0ZM3.01376 51.3341V49.9523C3.01376 23.6111 24.5387 2.05256 50.8388 2.05256H93.8217C107.136 2.05256 119.218 7.57971 127.911 16.4473C119.606 9.24322 108.81 4.86308 97.0297 4.86308H52.3189C26.3068 4.86979 5.02294 26.1869 5.02294 52.2396C5.02294 74.1 20.0047 92.6133 40.1969 98.013C18.9733 93.1298 3.01376 74.0128 3.01376 51.3341ZM130.596 50.6432C130.596 70.062 114.824 85.8586 95.4358 85.8586H50.5642C31.1757 85.8586 15.4037 70.062 15.4037 50.6432C15.4037 31.2244 31.1757 15.4277 50.5642 15.4277H95.4358C114.824 15.4277 130.596 31.2244 130.596 50.6432ZM101.463 91.8955H53.9128C44.6104 91.8955 36.1517 88.0118 29.8563 81.6864C35.6428 85.9995 42.695 88.5417 50.2963 88.5417H98.3893C117.999 88.5417 133.952 71.6919 133.952 50.9785C133.952 42.2585 131.119 34.2361 126.384 27.8571C132.713 34.652 136.631 44.0159 136.631 54.3324C136.631 75.0458 120.859 91.8955 101.47 91.8955H101.463Z" fill="black"/>
<path d="M130.597 264.277V230.738H119.211V240.129H109.165V230.738H91.7525V259.581H77.0186V278.363H91.7525V307.206H109.165V297.815H119.211V307.206H130.597V273.668H119.211V283.058H109.165V273.668H100.459V264.277H109.165V254.886H119.211V264.277H130.597ZM83.7158 275.68H80.3672V262.264H83.7158V275.68ZM97.78 304.523H93.7617V233.421H97.78V304.523Z" fill="black"/>
</svg>
