<svg width="1452" height="530" viewBox="0 0 1452 530" fill="none" xmlns="http://www.w3.org/2000/svg">
<path d="M2 235.5V72C2 33.3401 33.3401 2 72 2H1380C1418.66 2 1450 33.3401 1450 72V458C1450 496.66 1418.66 528 1380 528H72C33.34 528 2 496.66 2 458V381.75V295" stroke="black" stroke-width="3"/>
<path d="M0.5 235H27V295H0.5" stroke="black" stroke-width="3"/>
<path d="M142.53 245V216.437H148.202L153.751 239.451H153.996L159.545 216.437H165.217V245H161.259V225.537H161.014L156.403 245H151.343L146.733 225.537H146.488V245H142.53ZM181.607 245.53C175.242 245.53 170.876 241.124 170.876 235.248V226.19C170.876 220.314 175.242 215.907 181.607 215.907C187.972 215.907 192.338 220.314 192.338 226.19V235.248C192.338 241.124 187.972 245.53 181.607 245.53ZM181.607 241.328C185.973 241.328 188.013 238.227 188.013 235.003V226.434C188.013 223.252 185.932 220.11 181.607 220.11C177.282 220.11 175.201 223.252 175.201 226.434V235.003C175.201 238.227 177.241 241.328 181.607 241.328ZM209.341 245.53C202.445 245.53 198.364 241.124 198.364 234.554V216.437H202.73V234.513C202.73 238.757 205.015 241.45 209.341 241.45C213.666 241.45 215.951 238.757 215.951 234.473V216.437H220.317V234.513C220.317 241.083 216.196 245.53 209.341 245.53ZM226.751 245V216.437H236.993C242.868 216.437 246.581 220.028 246.581 225.21C246.581 229.291 244.052 232.351 240.951 233.493L247.438 245H242.46L236.625 234.146H231.117V245H226.751ZM231.117 230.311H236.829C239.808 230.311 242.093 228.597 242.093 225.21C242.093 222.436 240.175 220.232 236.666 220.232H231.117V230.311ZM272.887 245L270.806 238.798H258.728L256.647 245H252.118L262.115 216.437H267.501L277.498 245H272.887ZM260.034 234.84H269.46L264.89 221.212H264.604L260.034 234.84ZM282.708 245V216.437H291.603C298.009 216.437 302.375 220.763 302.375 226.638V235.126C302.375 241.001 298.009 245 291.603 245H282.708ZM287.033 241.164H291.603C295.969 241.164 298.009 238.308 298.009 235.044V226.679C298.009 223.497 295.928 220.314 291.603 220.314H287.033V241.164ZM358.7 245H353.477L345.275 231.739L341.684 235.942V245H337.318V216.437H341.684V229.617H341.929L352.905 216.437H358.332L348.254 228.23L358.7 245ZM375.743 245.53C369.377 245.53 365.011 241.124 365.011 235.248V226.19C365.011 220.314 369.377 215.907 375.743 215.907C382.108 215.907 386.474 220.314 386.474 226.19V235.248C386.474 241.124 382.108 245.53 375.743 245.53ZM375.743 241.328C380.109 241.328 382.149 238.227 382.149 235.003V226.434C382.149 223.252 380.068 220.11 375.743 220.11C371.417 220.11 369.336 223.252 369.336 226.434V235.003C369.336 238.227 371.377 241.328 375.743 241.328ZM393.439 245V216.437H397.805V240.92H413.555V245H393.439ZM421.172 245V216.437H425.538V240.92H441.288V245H421.172ZM448.743 245V241.001H456.74V220.436H448.743V216.437H469.145V220.436H461.106V241.001H469.145V245H448.743ZM484.107 250.345L484.8 240.675H489.248L487.208 250.345H484.107ZM153.996 313.53C147.875 313.53 143.428 309.736 143.428 304.227H147.753C147.793 307.165 150.16 309.491 154.118 309.491C157.505 309.491 159.831 307.94 159.831 305.37C159.831 297.658 144.366 303.37 144.366 291.864C144.366 287.539 147.834 283.907 153.873 283.907C158.77 283.907 163.584 286.518 163.666 292.476H159.259C159.218 289.66 157.301 287.865 153.832 287.865C150.323 287.865 148.732 289.742 148.732 291.782C148.732 298.678 164.319 293.496 164.319 305.043C164.319 309.817 160.524 313.53 153.996 313.53ZM179.404 313V288.355H170.549V284.437H192.665V288.355H183.81V313H179.404ZM217.42 313L215.339 306.798H203.261L201.18 313H196.651L206.648 284.437H212.034L222.03 313H217.42ZM204.567 302.84H213.992L209.422 289.212H209.137L204.567 302.84ZM226.751 313V284.437H236.993C242.868 284.437 246.581 288.028 246.581 293.21C246.581 297.291 244.052 300.351 240.951 301.493L247.438 313H242.46L236.625 302.146H231.117V313H226.751ZM231.117 298.311H236.829C239.808 298.311 242.093 296.597 242.093 293.21C242.093 290.436 240.175 288.232 236.666 288.232H231.117V298.311ZM262.605 313V288.355H253.75V284.437H275.866V288.355H267.011V313H262.605ZM322.438 301.983L322.479 308.96H328.64V313H311.951V308.96H318.153V301.983L308.238 284.437H313.012L320.112 297.413H320.357L327.416 284.437H332.312L322.438 301.983ZM348.009 313.53C341.644 313.53 337.278 309.124 337.278 303.248V294.19C337.278 288.314 341.644 283.907 348.009 283.907C354.374 283.907 358.74 288.314 358.74 294.19V303.248C358.74 309.124 354.374 313.53 348.009 313.53ZM348.009 309.328C352.375 309.328 354.415 306.227 354.415 303.003V294.434C354.415 291.252 352.334 288.11 348.009 288.11C343.684 288.11 341.603 291.252 341.603 294.434V303.003C341.603 306.227 343.643 309.328 348.009 309.328ZM375.743 313.53C368.847 313.53 364.766 309.124 364.766 302.554V284.437H369.132V302.513C369.132 306.757 371.417 309.45 375.743 309.45C380.068 309.45 382.353 306.757 382.353 302.473V284.437H386.719V302.513C386.719 309.083 382.598 313.53 375.743 313.53ZM393.153 313V284.437H403.395C409.27 284.437 412.984 288.028 412.984 293.21C412.984 297.291 410.454 300.351 407.353 301.493L413.84 313H408.862L403.027 302.146H397.519V313H393.153ZM397.519 298.311H403.231C406.21 298.311 408.495 296.597 408.495 293.21C408.495 290.436 406.577 288.232 403.068 288.232H397.519V298.311ZM458.821 313.53C453.68 313.53 449.436 310.429 449.396 304.839H453.68C453.721 307.655 455.802 309.491 458.903 309.491C462.616 309.491 464.126 306.675 464.126 303.901V288.355H453.762V284.437H468.492V303.942C468.492 309.164 465.309 313.53 458.821 313.53ZM486.677 313.53C480.312 313.53 475.946 309.124 475.946 303.248V294.19C475.946 288.314 480.312 283.907 486.677 283.907C493.043 283.907 497.409 288.314 497.409 294.19V303.248C497.409 309.124 493.043 313.53 486.677 313.53ZM486.677 309.328C491.043 309.328 493.084 306.227 493.084 303.003V294.434C493.084 291.252 491.003 288.11 486.677 288.11C482.352 288.11 480.271 291.252 480.271 294.434V303.003C480.271 306.227 482.311 309.328 486.677 309.328ZM514.411 313.53C507.515 313.53 503.435 309.124 503.435 302.554V284.437H507.801V302.513C507.801 306.757 510.086 309.45 514.411 309.45C518.736 309.45 521.021 306.757 521.021 302.473V284.437H525.387V302.513C525.387 309.083 521.266 313.53 514.411 313.53ZM531.821 313V284.437H542.063C547.939 284.437 551.652 288.028 551.652 293.21C551.652 297.291 549.122 300.351 546.021 301.493L552.509 313H547.531L541.696 302.146H536.187V313H531.821ZM536.187 298.311H541.9C544.879 298.311 547.164 296.597 547.164 293.21C547.164 290.436 545.246 288.232 541.737 288.232H536.187V298.311ZM559.065 313V284.437H563.635L576.244 305.125H576.489V284.437H580.691V313H575.999L563.513 292.313H563.268V313H559.065ZM588.921 313V284.437H605.854V288.314H593.328V296.597H604.1V300.432H593.328V309.164H606.303V313H588.921ZM627.508 301.983L627.549 308.96H633.71V313H617.022V308.96H623.224V301.983L613.309 284.437H618.083L625.183 297.413H625.427L632.486 284.437H637.383L627.508 301.983ZM145.508 381L141.591 352.437H145.713L148.324 374.92H148.569L151.384 352.437H156.362L159.178 374.92H159.463L162.034 352.437H166.155L162.279 381H156.933L153.996 358.517H153.751L150.813 381H145.508ZM171.406 381V377.001H179.404V356.436H171.406V352.437H191.808V356.436H183.769V377.001H191.808V381H171.406ZM207.137 381V356.355H198.283V352.437H220.398V356.355H211.544V381H207.137ZM226.22 381V352.437H230.586V364.475H243.562V352.437H247.969V381H243.562V368.555H230.586V381H226.22ZM290.338 381V356.355H281.484V352.437H303.599V356.355H294.745V381H290.338ZM309.422 381V352.437H313.788V364.475H326.763V352.437H331.17V381H326.763V368.555H313.788V381H309.422ZM356.088 381L354.007 374.798H341.929L339.848 381H335.319L345.316 352.437H350.702L360.699 381H356.088ZM343.235 370.84H352.661L348.091 357.212H347.805L343.235 370.84ZM364.93 381V352.437H369.5L382.108 373.125H382.353V352.437H386.556V381H381.863L369.377 360.313H369.132V381H364.93ZM414.167 381H408.944L400.742 367.739L397.152 371.942V381H392.786V352.437H397.152V365.617H397.397L408.373 352.437H413.8L403.721 364.23L414.167 381ZM422.845 381L418.928 352.437H423.049L425.661 374.92H425.906L428.721 352.437H433.699L436.514 374.92H436.8L439.371 352.437H443.492L439.616 381H434.27L431.332 358.517H431.088L428.15 381H422.845ZM467.023 381L464.942 374.798H452.864L450.783 381H446.254L456.251 352.437H461.637L471.634 381H467.023ZM454.17 370.84H463.595L459.025 357.212H458.74L454.17 370.84ZM476.354 381V352.437H486.596C492.471 352.437 496.185 356.028 496.185 361.21C496.185 365.291 493.655 368.351 490.554 369.493L497.041 381H492.063L486.229 370.146H480.72V381H476.354ZM480.72 366.311H486.433C489.411 366.311 491.696 364.597 491.696 361.21C491.696 358.436 489.778 356.232 486.269 356.232H480.72V366.311ZM504.577 381V352.437H513.473C519.879 352.437 524.245 356.763 524.245 362.638V371.126C524.245 377.001 519.879 381 513.473 381H504.577ZM508.903 377.164H513.473C517.839 377.164 519.879 374.308 519.879 371.044V362.679C519.879 359.497 517.798 356.314 513.473 356.314H508.903V377.164Z" fill="black"/>
<path d="M140 249.08H167.746V251.121H140V249.08ZM167.734 249.08H195.48V251.121H167.734V249.08ZM195.467 249.08H223.214V251.121H195.467V249.08ZM223.201 249.08H250.947V251.121H223.201V249.08ZM250.935 249.08H278.681V251.121H250.935V249.08ZM278.668 249.08H306.415V251.121H278.668V249.08ZM306.402 249.08H334.148V251.121H306.402V249.08ZM334.136 249.08H361.882V251.121H334.136V249.08ZM361.869 249.08H389.616V251.121H361.869V249.08ZM389.603 249.08H417.35V251.121H389.603V249.08ZM417.337 249.08H445.083V251.121H417.337V249.08ZM445.07 249.08H472.817V251.121H445.07V249.08ZM472.804 249.08H500.551V251.121H472.804V249.08ZM140 317.08H167.746V319.121H140V317.08ZM167.734 317.08H195.48V319.121H167.734V317.08ZM195.467 317.08H223.214V319.121H195.467V317.08ZM223.201 317.08H250.947V319.121H223.201V317.08ZM250.935 317.08H278.681V319.121H250.935V317.08ZM278.668 317.08H306.415V319.121H278.668V317.08ZM306.402 317.08H334.148V319.121H306.402V317.08ZM334.136 317.08H361.882V319.121H334.136V317.08ZM361.869 317.08H389.616V319.121H361.869V317.08ZM389.603 317.08H417.35V319.121H389.603V317.08ZM417.337 317.08H445.083V319.121H417.337V317.08ZM445.07 317.08H472.817V319.121H445.07V317.08ZM472.804 317.08H500.551V319.121H472.804V317.08ZM500.538 317.08H528.284V319.121H500.538V317.08ZM528.272 317.08H556.018V319.121H528.272V317.08ZM556.005 317.08H583.752V319.121H556.005V317.08ZM583.739 317.08H611.485V319.121H583.739V317.08ZM611.473 317.08H639.219V319.121H611.473V317.08ZM140 385.08H167.746V387.121H140V385.08ZM167.734 385.08H195.48V387.121H167.734V385.08ZM195.467 385.08H223.214V387.121H195.467V385.08ZM223.201 385.08H250.947V387.121H223.201V385.08ZM250.935 385.08H278.681V387.121H250.935V385.08ZM278.668 385.08H306.415V387.121H278.668V385.08ZM306.402 385.08H334.148V387.121H306.402V385.08ZM334.136 385.08H361.882V387.121H334.136V385.08ZM361.869 385.08H389.616V387.121H361.869V385.08ZM389.603 385.08H417.35V387.121H389.603V385.08ZM417.337 385.08H445.083V387.121H417.337V385.08ZM445.07 385.08H472.817V387.121H445.07V385.08ZM472.804 385.08H500.551V387.121H472.804V385.08ZM500.538 385.08H528.284V387.121H500.538V385.08Z" fill="black"/>
<path d="M1142.7 280.779H1142.37V212.36H1142.7C1146.02 212.36 1148.73 209.644 1148.73 206.323C1148.73 203.003 1146.02 200.286 1142.7 200.286H1142.37V198.274C1142.37 194.585 1139.35 191.566 1135.67 191.566H1135C1131.32 191.566 1128.3 194.585 1128.3 198.274V200.286H1127.3C1123.98 200.286 1121.27 203.003 1121.27 206.323C1121.27 209.644 1123.98 212.36 1127.3 212.36H1128.3V280.779H1127.3C1123.98 280.779 1121.27 283.495 1121.27 286.816C1121.27 290.136 1123.98 292.853 1127.3 292.853H1128.3V420.299C1128.3 423.988 1131.32 427.007 1135 427.007H1135.67C1139.35 427.007 1142.37 423.988 1142.37 420.299V292.853H1142.7C1146.02 292.853 1148.73 290.136 1148.73 286.816C1148.73 283.495 1146.02 280.779 1142.7 280.779ZM1123.84 206.323C1123.84 203.741 1125.95 201.628 1128.52 201.628H1131.65C1129.07 201.628 1126.96 203.741 1126.96 206.323C1126.96 208.906 1129.07 211.019 1131.65 211.019H1128.52C1125.95 211.019 1123.84 208.906 1123.84 206.323ZM1128.52 291.511C1125.95 291.511 1123.84 289.398 1123.84 286.816C1123.84 284.233 1125.95 282.12 1128.52 282.12H1131.65C1129.07 282.12 1126.96 284.233 1126.96 286.816C1126.96 289.398 1129.07 291.511 1131.65 291.511H1128.52ZM1133.66 424.082C1132.1 423.526 1130.98 422.043 1130.98 420.292V292.846H1133.66V424.082ZM1133.66 280.779H1130.98V212.36H1133.66V280.779ZM1133.66 200.286H1130.98V198.274C1130.98 196.523 1132.1 195.041 1133.66 194.484V200.286Z" fill="black"/>
<path d="M1157.44 99H1112.56C1084.75 99 1062 121.786 1062 149.643C1062 177.5 1084.75 200.286 1112.56 200.286H1157.44C1185.24 200.286 1208 177.5 1208 149.643C1208 121.786 1185.25 99 1157.44 99ZM1065.01 150.334V148.952C1065.01 122.611 1086.54 101.053 1112.84 101.053H1155.82C1169.14 101.053 1181.22 106.58 1189.91 115.447C1181.61 108.243 1170.81 103.863 1159.03 103.863H1114.32C1088.31 103.87 1067.02 125.187 1067.02 151.24C1067.02 173.1 1082 191.613 1102.2 197.013C1080.97 192.13 1065.01 173.013 1065.01 150.334ZM1192.6 149.643C1192.6 169.062 1176.82 184.859 1157.44 184.859H1112.56C1093.18 184.859 1077.4 169.062 1077.4 149.643C1077.4 130.224 1093.18 114.428 1112.56 114.428H1157.44C1176.82 114.428 1192.6 130.224 1192.6 149.643ZM1163.46 190.896H1115.91C1106.61 190.896 1098.15 187.012 1091.86 180.686C1097.64 184.999 1104.69 187.542 1112.3 187.542H1160.39C1180 187.542 1195.95 170.692 1195.95 149.979C1195.95 141.259 1193.12 133.236 1188.38 126.857C1194.71 133.652 1198.63 143.016 1198.63 153.332C1198.63 174.046 1182.86 190.896 1163.47 190.896H1163.46Z" fill="black"/>
<path d="M1192.6 363.277V329.738H1181.21V339.129H1171.17V329.738H1153.75V358.581H1139.02V377.363H1153.75V406.206H1171.17V396.815H1181.21V406.206H1192.6V372.668H1181.21V382.058H1171.17V372.668H1162.46V363.277H1171.17V353.886H1181.21V363.277H1192.6ZM1145.72 374.68H1142.37V361.264H1145.72V374.68ZM1159.78 403.523H1155.76V332.421H1159.78V403.523Z" fill="black"/>
<path d="M955.531 292.182C953.767 292.182 952.311 291.118 952.297 289.2H953.767C953.781 290.166 954.495 290.796 955.559 290.796C956.833 290.796 957.351 289.83 957.351 288.878V283.544H953.795V282.2H958.849V288.892C958.849 290.684 957.757 292.182 955.531 292.182ZM964.598 292.182C962.932 292.182 961.91 290.964 961.91 289.382V284.678H963.38V289.116C963.38 290.152 964.094 290.824 965.018 290.824C966.04 290.824 966.796 290.04 966.796 288.976V284.678H968.266V292H966.838V291.02H966.74C966.446 291.622 965.69 292.182 964.598 292.182ZM975.85 290.698H977.908V292H975.556C974.45 292 973.82 291.328 973.82 290.18V282.704H971.3V281.5H975.29V290.096C975.29 290.488 975.486 290.698 975.85 290.698ZM984.203 283.53C983.643 283.53 983.237 283.152 983.237 282.592C983.237 282.06 983.643 281.668 984.203 281.668C984.777 281.668 985.169 282.06 985.169 282.592C985.169 283.152 984.777 283.53 984.203 283.53ZM984.931 290.796H987.297V292H980.941V290.796H983.461V285.882H981.207V284.678H984.931V290.796ZM993.705 292.182C991.507 292.182 990.023 290.558 990.023 288.36C990.023 286.036 991.591 284.496 993.663 284.496C995.959 284.496 997.261 286.176 997.261 288.262V288.808H991.493C991.549 290.082 992.403 290.95 993.733 290.95C994.657 290.95 995.469 290.502 995.763 289.788H997.191C996.799 291.202 995.511 292.182 993.705 292.182ZM991.521 287.674H995.791C995.693 286.442 994.811 285.728 993.663 285.728C992.543 285.728 991.633 286.526 991.521 287.674ZM999.973 292V284.678H1001.4V285.658H1001.5C1001.79 285.056 1002.55 284.496 1003.64 284.496C1005.31 284.496 1006.33 285.714 1006.33 287.296V292H1004.86V287.576C1004.86 286.554 1004.14 285.868 1003.22 285.868C1002.2 285.868 1001.44 286.666 1001.44 287.73V292H999.973ZM1018.81 292V282.2H1021.86C1024.06 282.2 1025.56 283.684 1025.56 285.7V288.612C1025.56 290.628 1024.06 292 1021.86 292H1018.81ZM1020.29 290.684H1021.86C1023.36 290.684 1024.06 289.704 1024.06 288.584V285.714C1024.06 284.622 1023.34 283.53 1021.86 283.53H1020.29V290.684ZM1031.21 292.182C1029.54 292.182 1028.52 290.964 1028.52 289.382V284.678H1029.99V289.116C1029.99 290.152 1030.7 290.824 1031.63 290.824C1032.65 290.824 1033.41 290.04 1033.41 288.976V284.678H1034.88V292H1033.45V291.02H1033.35C1033.06 291.622 1032.3 292.182 1031.21 292.182ZM1040.4 292L1037.63 284.678H1039.18L1041.16 290.222H1041.24L1043.2 284.678H1044.78L1042.01 292H1040.4ZM1050.56 292.182C1048.46 292.182 1047 290.628 1047 288.36C1047 286.092 1048.45 284.496 1050.48 284.496C1051.89 284.496 1052.65 285.364 1052.88 285.742H1052.97V284.678H1054.44V292H1053.01V290.964H1052.91C1052.73 291.244 1052.02 292.182 1050.56 292.182ZM1050.77 290.852C1052.17 290.852 1053.01 289.732 1053.01 288.346C1053.01 286.764 1052.04 285.84 1050.74 285.84C1049.41 285.84 1048.5 286.876 1048.5 288.346C1048.5 289.872 1049.41 290.852 1050.77 290.852ZM1061.49 290.698H1063.55V292H1061.2C1060.09 292 1059.46 291.328 1059.46 290.18V282.704H1056.94V281.5H1060.93V290.096C1060.93 290.488 1061.13 290.698 1061.49 290.698ZM946.197 320.182C943.929 320.182 942.389 318.502 942.389 316.346C942.389 314.176 943.957 312.496 946.183 312.496C947.919 312.496 949.389 313.56 949.725 315.24H948.213C947.961 314.4 947.163 313.84 946.197 313.84C944.811 313.84 943.901 314.932 943.901 316.346C943.901 317.788 944.867 318.852 946.225 318.852C947.163 318.852 947.975 318.292 948.227 317.466H949.725C949.403 319.146 947.933 320.182 946.197 320.182ZM955.559 320.182C953.319 320.182 951.709 318.544 951.709 316.346C951.709 314.148 953.333 312.496 955.573 312.496C957.827 312.496 959.437 314.162 959.437 316.346C959.437 318.53 957.812 320.182 955.559 320.182ZM955.559 318.852C956.945 318.852 957.939 317.788 957.939 316.346C957.939 314.89 956.945 313.84 955.559 313.84C954.173 313.84 953.207 314.904 953.207 316.346C953.207 317.802 954.187 318.852 955.559 318.852ZM963.226 316.416V315.114H966.936V316.416H963.226ZM974.59 320.182C972.35 320.182 970.74 318.544 970.74 316.346C970.74 314.148 972.364 312.496 974.604 312.496C976.858 312.496 978.468 314.162 978.468 316.346C978.468 318.53 976.844 320.182 974.59 320.182ZM974.59 318.852C975.976 318.852 976.97 317.788 976.97 316.346C976.97 314.89 975.976 313.84 974.59 313.84C973.204 313.84 972.238 314.904 972.238 316.346C972.238 317.802 973.218 318.852 974.59 318.852ZM980.395 323.22V312.678H981.823V313.728H981.921C982.117 313.434 982.831 312.496 984.287 312.496C986.387 312.496 987.829 314.05 987.829 316.318C987.829 318.586 986.387 320.182 984.357 320.182C982.943 320.182 982.187 319.328 981.963 318.936H981.865V323.22H980.395ZM984.091 318.852C985.421 318.852 986.331 317.802 986.331 316.332C986.331 314.806 985.421 313.826 984.063 313.826C982.677 313.826 981.823 314.946 981.823 316.332C981.823 317.914 982.803 318.852 984.091 318.852ZM994.881 320C993.439 320 992.571 319.202 992.571 317.676V313.882H990.373V312.692H992.221C992.473 312.692 992.655 312.51 992.655 312.216V310.606H994.041V312.678H996.897V313.882H994.041V317.634C994.041 318.334 994.335 318.754 995.105 318.754H996.631V320H994.881ZM1003.22 320.182C1001.02 320.182 999.539 318.558 999.539 316.36C999.539 314.036 1001.11 312.496 1003.18 312.496C1005.47 312.496 1006.78 314.176 1006.78 316.262V316.808H1001.01C1001.06 318.082 1001.92 318.95 1003.25 318.95C1004.17 318.95 1004.98 318.502 1005.28 317.788H1006.71C1006.31 319.202 1005.03 320.182 1003.22 320.182ZM1001.04 315.674H1005.31C1005.21 314.442 1004.33 313.728 1003.18 313.728C1002.06 313.728 1001.15 314.526 1001.04 315.674ZM1012.51 320.182C1010.4 320.182 1008.96 318.628 1008.96 316.36C1008.96 314.092 1010.4 312.496 1012.43 312.496C1013.83 312.496 1014.6 313.364 1014.84 313.742H1014.92V309.5H1016.39V320H1014.96V318.964H1014.86C1014.67 319.244 1013.97 320.182 1012.51 320.182ZM1012.72 318.852C1014.11 318.852 1014.96 317.732 1014.96 316.346C1014.96 314.764 1013.98 313.84 1012.69 313.84C1011.36 313.84 1010.45 314.876 1010.45 316.346C1010.45 317.872 1011.36 318.852 1012.72 318.852ZM1028.79 323.22V321.904H1029.43C1030.1 321.904 1030.48 321.596 1030.7 321.008L1030.97 320.308L1028.03 312.678H1029.61L1031.66 318.334H1031.74L1033.77 312.678H1035.37L1032.01 321.456C1031.59 322.576 1030.93 323.22 1029.61 323.22H1028.79ZM1041.2 320.182C1038.96 320.182 1037.35 318.544 1037.35 316.346C1037.35 314.148 1038.97 312.496 1041.21 312.496C1043.47 312.496 1045.08 314.162 1045.08 316.346C1045.08 318.53 1043.45 320.182 1041.2 320.182ZM1041.2 318.852C1042.59 318.852 1043.58 317.788 1043.58 316.346C1043.58 314.89 1042.59 313.84 1041.2 313.84C1039.81 313.84 1038.85 314.904 1038.85 316.346C1038.85 317.802 1039.83 318.852 1041.2 318.852ZM1050.24 320.182C1048.57 320.182 1047.55 318.964 1047.55 317.382V312.678H1049.02V317.116C1049.02 318.152 1049.73 318.824 1050.66 318.824C1051.68 318.824 1052.44 318.04 1052.44 316.976V312.678H1053.91V320H1052.48V319.02H1052.38C1052.09 319.622 1051.33 320.182 1050.24 320.182ZM1060.26 320.182C1059.74 320.182 1059.32 319.79 1059.32 319.272C1059.32 318.754 1059.74 318.348 1060.26 318.348C1060.78 318.348 1061.18 318.754 1061.18 319.272C1061.18 319.79 1060.78 320.182 1060.26 320.182ZM914.5 351.22V349.596H915.256C915.886 349.596 916.25 349.288 916.446 348.742L916.642 348.224L913.716 340.636H915.634L917.468 345.816H917.58L919.358 340.636H921.304L918.056 349.26C917.594 350.506 916.838 351.22 915.41 351.22H914.5ZM927.012 348.182C924.716 348.182 923.106 346.516 923.106 344.318C923.106 342.134 924.702 340.454 927.026 340.454C929.336 340.454 930.946 342.134 930.946 344.318C930.946 346.502 929.322 348.182 927.012 348.182ZM927.012 346.53C928.23 346.53 929.098 345.606 929.098 344.318C929.098 343.044 928.23 342.106 927.012 342.106C925.808 342.106 924.954 343.044 924.954 344.318C924.954 345.62 925.822 346.53 927.012 346.53ZM935.925 348.182C934.273 348.182 933.251 347.02 933.251 345.452V340.636H935.071V344.99C935.071 345.886 935.659 346.502 936.485 346.502C937.381 346.502 938.011 345.788 938.011 344.864V340.636H939.831V348H938.095V347.104H937.983C937.689 347.65 936.961 348.182 935.925 348.182ZM948.185 342.344C947.023 342.344 946.323 343.198 946.323 344.514V346.558H949.361V348H942.571V346.558H944.503V342.092H942.767V340.636H946.239V341.84H946.337C946.575 341.266 947.261 340.608 948.269 340.608H949.543V342.344H948.185ZM964.78 348.182C962.708 348.182 961.294 346.642 961.294 344.36C961.294 342.05 962.708 340.454 964.71 340.454C965.998 340.454 966.712 341.21 966.95 341.588H967.062V340.636H968.882V348H967.09V347.062H966.978C966.782 347.37 966.124 348.182 964.78 348.182ZM965.13 346.544C966.348 346.544 967.104 345.564 967.104 344.332C967.104 342.946 966.25 342.106 965.116 342.106C963.94 342.106 963.142 343.03 963.142 344.332C963.142 345.662 963.94 346.544 965.13 346.544ZM974.716 348.182C972.406 348.182 970.866 346.488 970.866 344.318C970.866 342.148 972.406 340.454 974.716 340.454C976.62 340.454 978.076 341.616 978.356 343.352H976.494C976.27 342.624 975.598 342.106 974.73 342.106C973.512 342.106 972.714 343.086 972.714 344.318C972.714 345.592 973.54 346.53 974.744 346.53C975.584 346.53 976.27 346.054 976.48 345.34H978.342C978.062 347.048 976.606 348.182 974.716 348.182ZM984.231 348.182C981.921 348.182 980.381 346.488 980.381 344.318C980.381 342.148 981.921 340.454 984.231 340.454C986.135 340.454 987.591 341.616 987.871 343.352H986.009C985.785 342.624 985.113 342.106 984.245 342.106C983.027 342.106 982.229 343.086 982.229 344.318C982.229 345.592 983.055 346.53 984.259 346.53C985.099 346.53 985.785 346.054 985.995 345.34H987.857C987.577 347.048 986.121 348.182 984.231 348.182ZM993.663 348.182C991.493 348.182 989.953 346.558 989.953 344.36C989.953 342.036 991.507 340.454 993.663 340.454C996.029 340.454 997.317 342.204 997.317 344.276V344.85H991.717C991.773 345.97 992.557 346.726 993.719 346.726C994.615 346.726 995.301 346.306 995.553 345.704H997.247C996.883 347.202 995.567 348.182 993.663 348.182ZM991.745 343.562H995.581C995.497 342.568 994.727 341.91 993.663 341.91C992.655 341.91 991.857 342.638 991.745 343.562ZM1003.12 348.182C1001.13 348.182 1000.14 347.244 1000.07 345.788H1001.75C1001.83 346.418 1002.32 346.754 1003.15 346.754C1003.99 346.754 1004.48 346.39 1004.48 345.872C1004.48 344.304 1000.24 345.788 1000.24 342.708C1000.24 341.462 1001.32 340.454 1003.14 340.454C1004.73 340.454 1005.94 341.266 1006.03 342.736H1004.42C1004.34 342.204 1003.92 341.854 1003.12 341.854C1002.38 341.854 1001.9 342.176 1001.9 342.652C1001.9 344.052 1006.23 342.582 1006.23 345.774C1006.23 347.174 1005.1 348.182 1003.12 348.182ZM1012.64 348.182C1010.65 348.182 1009.66 347.244 1009.59 345.788H1011.27C1011.35 346.418 1011.84 346.754 1012.67 346.754C1013.51 346.754 1014 346.39 1014 345.872C1014 344.304 1009.75 345.788 1009.75 342.708C1009.75 341.462 1010.83 340.454 1012.65 340.454C1014.25 340.454 1015.45 341.266 1015.55 342.736H1013.94C1013.86 342.204 1013.44 341.854 1012.64 341.854C1011.9 341.854 1011.42 342.176 1011.42 342.652C1011.42 344.052 1015.75 342.582 1015.75 345.774C1015.75 347.174 1014.61 348.182 1012.64 348.182ZM1027.9 351.22V340.636H1029.7V341.574H1029.81C1030 341.266 1030.66 340.454 1032.01 340.454C1034.06 340.454 1035.49 341.994 1035.49 344.29C1035.49 346.586 1034.08 348.182 1032.08 348.182C1030.77 348.182 1030.07 347.454 1029.84 347.048H1029.72V351.22H1027.9ZM1031.67 346.53C1032.85 346.53 1033.64 345.62 1033.64 344.318C1033.64 342.974 1032.85 342.106 1031.66 342.106C1030.44 342.106 1029.68 343.072 1029.68 344.318C1029.68 345.69 1030.54 346.53 1031.67 346.53ZM1040.91 348.182C1038.83 348.182 1037.42 346.642 1037.42 344.36C1037.42 342.05 1038.83 340.454 1040.84 340.454C1042.12 340.454 1042.84 341.21 1043.08 341.588H1043.19V340.636H1045.01V348H1043.22V347.062H1043.1C1042.91 347.37 1042.25 348.182 1040.91 348.182ZM1041.26 346.544C1042.47 346.544 1043.23 345.564 1043.23 344.332C1043.23 342.946 1042.38 342.106 1041.24 342.106C1040.07 342.106 1039.27 343.03 1039.27 344.332C1039.27 345.662 1040.07 346.544 1041.26 346.544ZM1050.7 348.182C1048.71 348.182 1047.72 347.244 1047.65 345.788H1049.33C1049.41 346.418 1049.9 346.754 1050.73 346.754C1051.57 346.754 1052.06 346.39 1052.06 345.872C1052.06 344.304 1047.82 345.788 1047.82 342.708C1047.82 341.462 1048.89 340.454 1050.71 340.454C1052.31 340.454 1053.51 341.266 1053.61 342.736H1052C1051.92 342.204 1051.5 341.854 1050.7 341.854C1049.96 341.854 1049.48 342.176 1049.48 342.652C1049.48 344.052 1053.81 342.582 1053.81 345.774C1053.81 347.174 1052.67 348.182 1050.7 348.182ZM1060.22 348.182C1058.23 348.182 1057.23 347.244 1057.16 345.788H1058.84C1058.93 346.418 1059.42 346.754 1060.24 346.754C1061.08 346.754 1061.57 346.39 1061.57 345.872C1061.57 344.304 1057.33 345.788 1057.33 342.708C1057.33 341.462 1058.41 340.454 1060.23 340.454C1061.83 340.454 1063.03 341.266 1063.13 342.736H1061.52C1061.43 342.204 1061.01 341.854 1060.22 341.854C1059.47 341.854 1059 342.176 1059 342.652C1059 344.052 1063.32 342.582 1063.32 345.774C1063.32 347.174 1062.19 348.182 1060.22 348.182ZM956.819 376C955.377 376 954.508 375.202 954.508 373.676V369.882H952.311V368.692H954.159C954.41 368.692 954.593 368.51 954.593 368.216V366.606H955.979V368.678H958.835V369.882H955.979V373.634C955.979 374.334 956.273 374.754 957.043 374.754H958.569V376H956.819ZM965.074 376.182C962.834 376.182 961.224 374.544 961.224 372.346C961.224 370.148 962.848 368.496 965.088 368.496C967.342 368.496 968.952 370.162 968.952 372.346C968.952 374.53 967.328 376.182 965.074 376.182ZM965.074 374.852C966.46 374.852 967.454 373.788 967.454 372.346C967.454 370.89 966.46 369.84 965.074 369.84C963.688 369.84 962.722 370.904 962.722 372.346C962.722 373.802 963.702 374.852 965.074 374.852ZM983.363 376V367.544H980.325V366.2H987.913V367.544H984.875V376H983.363ZM990.429 376V365.5H991.899V369.658H991.983C992.291 369.056 993.047 368.496 994.139 368.496C995.819 368.496 996.841 369.714 996.841 371.296V376H995.371V371.576C995.371 370.554 994.629 369.868 993.705 369.868C992.711 369.868 991.899 370.624 991.899 371.66V376H990.429ZM1002.98 376.182C1000.88 376.182 999.427 374.628 999.427 372.36C999.427 370.092 1000.87 368.496 1002.9 368.496C1004.31 368.496 1005.07 369.364 1005.31 369.742H1005.39V368.678H1006.86V376H1005.43V374.964H1005.33C1005.15 375.244 1004.44 376.182 1002.98 376.182ZM1003.19 374.852C1004.59 374.852 1005.43 373.732 1005.43 372.346C1005.43 370.764 1004.47 369.84 1003.16 369.84C1001.83 369.84 1000.92 370.876 1000.92 372.346C1000.92 373.872 1001.83 374.852 1003.19 374.852ZM1009.49 376V368.678H1010.92V369.658H1011.01C1011.31 369.056 1012.06 368.496 1013.16 368.496C1014.82 368.496 1015.84 369.714 1015.84 371.296V376H1014.37V371.576C1014.37 370.554 1013.66 369.868 1012.74 369.868C1011.71 369.868 1010.96 370.666 1010.96 371.73V376H1009.49ZM1025.35 376H1023.69L1021.62 372.542L1020.47 373.788V376H1019V365.5H1020.47V371.8H1020.56L1023.33 368.678H1025.16L1022.62 371.45L1025.35 376ZM1029.02 376L1027.6 368.678H1028.95L1029.88 374.194H1029.98L1030.94 368.678H1032.45L1033.42 374.194H1033.52L1034.44 368.678H1035.8L1034.37 376H1032.79L1031.74 370.358H1031.66L1030.61 376H1029.02ZM1041.05 376.182C1038.95 376.182 1037.49 374.628 1037.49 372.36C1037.49 370.092 1038.93 368.496 1040.96 368.496C1042.38 368.496 1043.13 369.364 1043.37 369.742H1043.45V368.678H1044.92V376H1043.5V374.964H1043.4C1043.22 375.244 1042.5 376.182 1041.05 376.182ZM1041.26 374.852C1042.66 374.852 1043.5 373.732 1043.5 372.346C1043.5 370.764 1042.53 369.84 1041.23 369.84C1039.9 369.84 1038.99 370.876 1038.99 372.346C1038.99 373.872 1039.9 374.852 1041.26 374.852ZM1052.79 370.092C1051.54 370.092 1050.83 371.03 1050.83 372.388V374.796H1053.92V376H1047.4V374.796H1049.36V369.882H1047.59V368.678H1050.77V369.952H1050.87C1051.09 369.364 1051.78 368.664 1052.83 368.664H1054.07V370.092H1052.79ZM1060.09 376.182C1057.98 376.182 1056.53 374.628 1056.53 372.36C1056.53 370.092 1057.98 368.496 1060.01 368.496C1061.41 368.496 1062.18 369.364 1062.41 369.742H1062.5V365.5H1063.97V376H1062.54V374.964H1062.44C1062.25 375.244 1061.55 376.182 1060.09 376.182ZM1060.3 374.852C1061.69 374.852 1062.54 373.732 1062.54 372.346C1062.54 370.764 1061.56 369.84 1060.27 369.84C1058.94 369.84 1058.03 370.876 1058.03 372.346C1058.03 373.872 1058.94 374.852 1060.3 374.852Z" fill="black"/>
<path d="M140.218 168V158.2H143.732C145.748 158.2 147.022 159.432 147.022 161.21C147.022 162.61 146.154 163.66 145.09 164.052L147.316 168H145.608L143.606 164.276H141.716V168H140.218ZM141.716 162.96H143.676C144.698 162.96 145.482 162.372 145.482 161.21C145.482 160.258 144.824 159.502 143.62 159.502H141.716V162.96ZM150.294 168V158.2H156.104V159.53H151.806V162.372H155.502V163.688H151.806V166.684H156.258V168H150.294ZM162.791 168.182C160.607 168.182 159.109 166.67 159.109 164.654V161.546C159.109 159.53 160.607 158.018 162.791 158.018C164.905 158.018 166.389 159.404 166.473 161.392H164.975C164.891 160.37 164.177 159.46 162.791 159.46C161.307 159.46 160.593 160.538 160.593 161.63V164.598C160.593 165.718 161.293 166.782 162.791 166.782C164.261 166.768 164.947 165.704 164.947 164.598V164.01H162.343V162.778H166.445V164.654C166.445 166.684 164.947 168.168 162.791 168.182ZM168.807 168V166.628H171.551V159.572H168.807V158.2H175.807V159.572H173.049V166.628H175.807V168H168.807ZM181.865 168.182C179.765 168.182 178.239 166.88 178.239 164.99H179.723C179.737 165.998 180.549 166.796 181.907 166.796C183.069 166.796 183.867 166.264 183.867 165.382C183.867 162.736 178.561 164.696 178.561 160.748C178.561 159.264 179.751 158.018 181.823 158.018C183.503 158.018 185.155 158.914 185.183 160.958H183.671C183.657 159.992 182.999 159.376 181.809 159.376C180.605 159.376 180.059 160.02 180.059 160.72C180.059 163.086 185.407 161.308 185.407 165.27C185.407 166.908 184.105 168.182 181.865 168.182ZM190.582 168V159.544H187.544V158.2H195.132V159.544H192.094V168H190.582ZM197.312 168V158.2H200.826C202.842 158.2 204.116 159.432 204.116 161.21C204.116 162.61 203.248 163.66 202.184 164.052L204.41 168H202.702L200.7 164.276H198.81V168H197.312ZM198.81 162.96H200.77C201.792 162.96 202.576 162.372 202.576 161.21C202.576 160.258 201.918 159.502 200.714 159.502H198.81V162.96ZM213.141 168L212.427 165.872H208.283L207.569 168H206.015L209.445 158.2H211.293L214.723 168H213.141ZM208.731 164.514H211.965L210.397 159.838H210.299L208.731 164.514ZM219.129 168V159.544H216.091V158.2H223.679V159.544H220.641V168H219.129ZM225.901 168V166.628H228.645V159.572H225.901V158.2H232.901V159.572H230.143V166.628H232.901V168H225.901ZM238.916 168.182C236.732 168.182 235.234 166.67 235.234 164.654V161.546C235.234 159.53 236.732 158.018 238.916 158.018C241.1 158.018 242.598 159.53 242.598 161.546V164.654C242.598 166.67 241.1 168.182 238.916 168.182ZM238.916 166.74C240.414 166.74 241.114 165.676 241.114 164.57V161.63C241.114 160.538 240.4 159.46 238.916 159.46C237.432 159.46 236.718 160.538 236.718 161.63V164.57C236.718 165.676 237.418 166.74 238.916 166.74ZM244.722 168V158.2H246.29L250.616 165.298H250.7V158.2H252.142V168H250.532L246.248 160.902H246.164V168H244.722Z" fill="black"/>
<path d="M1379 257L1394 264.5L1379 272V257Z" fill="black"/>
</svg>
